<svg xmlns="http://www.w3.org/2000/svg" viewBox="0 10 720 750" width="720" height="750">
  <!-- Page: Voice Pipeline -->
  <style>text { font-family: Inter, Arial, sans-serif; }</style>
  <rect id="vp-livekit" x="250.0" y="30.0" width="180.0" height="50.0" rx="8" ry="8" fill="#e1d5e7" stroke="#9673a6" stroke-width="1" />
  <rect id="vp-swim-body" x="230.0" y="120.0" width="220.0" height="530.0" rx="4" ry="4" fill="#fafafa" stroke="#666666" stroke-width="1" />
  <rect id="vp-s1" x="248.0" y="192.0" width="184.0" height="44.0" rx="8" ry="8" fill="#fff2cc" stroke="#d6b656" stroke-width="1" />
  <rect id="vp-s2" x="248.0" y="266.0" width="184.0" height="44.0" rx="8" ry="8" fill="#fff2cc" stroke="#d6b656" stroke-width="1" />
  <rect id="vp-s3" x="248.0" y="340.0" width="184.0" height="44.0" rx="8" ry="8" fill="#fff2cc" stroke="#d6b656" stroke-width="1" />
  <rect id="vp-s4" x="248.0" y="414.0" width="184.0" height="44.0" rx="8" ry="8" fill="#fff2cc" stroke="#d6b656" stroke-width="1" />
  <rect id="vp-s5" x="248.0" y="488.0" width="184.0" height="44.0" rx="8" ry="8" fill="#fff2cc" stroke="#d6b656" stroke-width="1" />
  <rect id="vp-s6" x="248.0" y="582.0" width="184.0" height="44.0" rx="8" ry="8" fill="#fff2cc" stroke="#d6b656" stroke-width="1" />
  <rect id="vp-stt-svc" x="540.0" y="310.0" width="160.0" height="50.0" rx="8" ry="8" fill="#e1d5e7" stroke="#9673a6" stroke-width="1" />
  <rect id="vp-llm-svc" x="540.0" y="390.0" width="160.0" height="50.0" rx="8" ry="8" fill="#e1d5e7" stroke="#9673a6" stroke-width="1" />
  <rect id="vp-tts-svc" x="540.0" y="470.0" width="160.0" height="50.0" rx="8" ry="8" fill="#e1d5e7" stroke="#9673a6" stroke-width="1" />
  <rect x="20.0" y="680.0" width="140.0" height="60.0" rx="4" ry="4" fill="#f9f9f9" stroke="#e0e0e0" stroke-width="1" />
  <defs><marker id="arrow-vpe-s1s2" markerWidth="10" markerHeight="8" refX="9" refY="4" orient="auto" markerUnits="userSpaceOnUse"><polygon points="0 0, 10 4, 0 8" fill="#666666" /></marker></defs>
  <polyline id="vpe-s1s2" points="340.0,236.0 340.0,266.0" fill="none" stroke="#666666" stroke-width="2" stroke-linejoin="round" marker-end="url(#arrow-vpe-s1s2)" />
  <defs><marker id="arrow-vpe-s2s3" markerWidth="10" markerHeight="8" refX="9" refY="4" orient="auto" markerUnits="userSpaceOnUse"><polygon points="0 0, 10 4, 0 8" fill="#666666" /></marker></defs>
  <polyline id="vpe-s2s3" points="340.0,310.0 340.0,340.0" fill="none" stroke="#666666" stroke-width="2" stroke-linejoin="round" marker-end="url(#arrow-vpe-s2s3)" />
  <defs><marker id="arrow-vpe-s3s4" markerWidth="10" markerHeight="8" refX="9" refY="4" orient="auto" markerUnits="userSpaceOnUse"><polygon points="0 0, 10 4, 0 8" fill="#666666" /></marker></defs>
  <polyline id="vpe-s3s4" points="340.0,384.0 340.0,414.0" fill="none" stroke="#666666" stroke-width="2" stroke-linejoin="round" marker-end="url(#arrow-vpe-s3s4)" />
  <defs><marker id="arrow-vpe-s4s5" markerWidth="10" markerHeight="8" refX="9" refY="4" orient="auto" markerUnits="userSpaceOnUse"><polygon points="0 0, 10 4, 0 8" fill="#666666" /></marker></defs>
  <polyline id="vpe-s4s5" points="340.0,458.0 340.0,488.0" fill="none" stroke="#666666" stroke-width="2" stroke-linejoin="round" marker-end="url(#arrow-vpe-s4s5)" />
  <defs><marker id="arrow-vpe-s5s6" markerWidth="10" markerHeight="8" refX="9" refY="4" orient="auto" markerUnits="userSpaceOnUse"><polygon points="0 0, 10 4, 0 8" fill="#666666" /></marker></defs>
  <polyline id="vpe-s5s6" points="340.0,532.0 340.0,582.0" fill="none" stroke="#666666" stroke-width="2" stroke-linejoin="round" marker-end="url(#arrow-vpe-s5s6)" />
  <defs><marker id="arrow-vpe-lk-in" markerWidth="10" markerHeight="8" refX="9" refY="4" orient="auto" markerUnits="userSpaceOnUse"><polygon points="0 0, 10 4, 0 8" fill="#d79b00" /></marker></defs>
  <polyline id="vpe-lk-in" points="340.0,80.0 340.0,192.0" fill="none" stroke="#d79b00" stroke-width="2" stroke-dasharray="12 4" stroke-linejoin="round" marker-end="url(#arrow-vpe-lk-in)" />
  <defs><marker id="arrow-vpe-stt" markerWidth="10" markerHeight="8" refX="9" refY="4" orient="auto" markerUnits="userSpaceOnUse"><polygon points="0 0, 10 4, 0 8" fill="#9673a6" /></marker></defs>
  <polyline id="vpe-stt" points="432.0,362.0 486.0,362.0 486.0,335.0 540.0,335.0" fill="none" stroke="#9673a6" stroke-width="3" stroke-linejoin="round" marker-end="url(#arrow-vpe-stt)" />
  <defs><marker id="arrow-vpe-llm" markerWidth="10" markerHeight="8" refX="9" refY="4" orient="auto" markerUnits="userSpaceOnUse"><polygon points="0 0, 10 4, 0 8" fill="#6c8ebf" /></marker></defs>
  <polyline id="vpe-llm" points="432.0,436.0 486.0,436.0 486.0,415.0 540.0,415.0" fill="none" stroke="#6c8ebf" stroke-width="2" stroke-linejoin="round" marker-end="url(#arrow-vpe-llm)" />
  <defs><marker id="arrow-vpe-tts" markerWidth="10" markerHeight="8" refX="9" refY="4" orient="auto" markerUnits="userSpaceOnUse"><polygon points="0 0, 10 4, 0 8" fill="#9673a6" /></marker></defs>
  <polyline id="vpe-tts" points="432.0,510.0 486.0,510.0 486.0,495.0 540.0,495.0" fill="none" stroke="#9673a6" stroke-width="3" stroke-linejoin="round" marker-end="url(#arrow-vpe-tts)" />
  <defs><marker id="arrow-vpe-out-lk" markerWidth="10" markerHeight="8" refX="9" refY="4" orient="auto" markerUnits="userSpaceOnUse"><polygon points="0 0, 10 4, 0 8" fill="#d79b00" /></marker></defs>
  <polyline id="vpe-out-lk" points="248.0,604.0 190.0,604.0 190.0,55.0 250.0,55.0" fill="none" stroke="#d79b00" stroke-width="2" stroke-dasharray="12 4" stroke-linejoin="round" marker-end="url(#arrow-vpe-out-lk)" />
  <rect id="vp-swim-header" x="230.0" y="120.0" width="220.0" height="46.0" rx="4" ry="4" fill="#f5f5f5" stroke="#666666" stroke-width="1" />
  <rect x="230.0" y="162.0" width="220.0" height="4.0" fill="#f5f5f5" stroke="none" />
  <rect x="350.0" y="124.0" width="47.0" height="14" rx="2" ry="2" fill="white" stroke="none" opacity="0.5" />
  <text x="352.0" y="134.0" font-family="Inter, Arial, sans-serif" font-size="10" text-anchor="start" fill="#d79b00">WebRTC</text>
  <rect x="473.2" y="323.0" width="79.5" height="14" rx="2" ry="2" fill="white" stroke="none" opacity="0.7" />
  <text x="513.0" y="333.0" font-family="Inter, Arial, sans-serif" font-size="10" text-anchor="middle" fill="#9673a6">gRPC stream</text>
  <rect x="483.0" y="403.0" width="60.0" height="14" rx="2" ry="2" fill="white" stroke="none" opacity="0.7" />
  <text x="513.0" y="413.0" font-family="Inter, Arial, sans-serif" font-size="10" text-anchor="middle" fill="#6c8ebf">HTTP /v1</text>
  <rect x="476.5" y="483.0" width="73.0" height="14" rx="2" ry="2" fill="white" stroke="none" opacity="0.7" />
  <text x="513.0" y="493.0" font-family="Inter, Arial, sans-serif" font-size="10" text-anchor="middle" fill="#9673a6">gRPC synth</text>
  <rect x="200.0" y="317.5" width="66.5" height="14" rx="2" ry="2" fill="white" stroke="none" opacity="0.5" />
  <text x="202.0" y="327.5" font-family="Inter, Arial, sans-serif" font-size="10" text-anchor="start" fill="#d79b00">audio out</text>
  <text x="340.0" y="51.0" font-family="Inter, Arial, sans-serif" font-size="12" font-weight="bold" font-style="normal" text-anchor="middle" fill="#333">LiveKit</text>
  <text x="340.0" y="67.0" font-family="Inter, Arial, sans-serif" font-size="12" font-weight="bold" font-style="normal" text-anchor="middle" fill="#333">WebRTC SFU :7880</text>
  <text x="340.0" y="136.0" font-family="Inter, Arial, sans-serif" font-size="12" font-weight="bold" font-style="normal" text-anchor="middle" fill="#333">Cascade Voice Pipeline</text>
  <text x="340.0" y="152.0" font-family="Inter, Arial, sans-serif" font-size="12" font-weight="bold" font-style="normal" text-anchor="middle" fill="#333">Pipecat framework</text>
  <text x="340.0" y="210.0" font-family="Inter, Arial, sans-serif" font-size="11" font-weight="normal" font-style="normal" text-anchor="middle" fill="#333">Audio In</text>
  <text x="340.0" y="225.0" font-family="Inter, Arial, sans-serif" font-size="11" font-weight="normal" font-style="normal" text-anchor="middle" fill="#333">LiveKit transport frames</text>
  <text x="340.0" y="284.0" font-family="Inter, Arial, sans-serif" font-size="11" font-weight="normal" font-style="normal" text-anchor="middle" fill="#333">VAD</text>
  <text x="340.0" y="299.0" font-family="Inter, Arial, sans-serif" font-size="11" font-weight="normal" font-style="normal" text-anchor="middle" fill="#333">MarbleNet 0.5 conf / 0.7s stop</text>
  <text x="340.0" y="358.0" font-family="Inter, Arial, sans-serif" font-size="11" font-weight="normal" font-style="normal" text-anchor="middle" fill="#333">Speech-to-Text</text>
  <text x="340.0" y="373.0" font-family="Inter, Arial, sans-serif" font-size="11" font-weight="normal" font-style="normal" text-anchor="middle" fill="#333">Nemotron ASR (streaming)</text>
  <text x="340.0" y="432.0" font-family="Inter, Arial, sans-serif" font-size="11" font-weight="normal" font-style="normal" text-anchor="middle" fill="#333">LLM Completion</text>
  <text x="340.0" y="447.0" font-family="Inter, Arial, sans-serif" font-size="11" font-weight="normal" font-style="normal" text-anchor="middle" fill="#333">vLLM OpenAI-compat /v1</text>
  <text x="340.0" y="506.0" font-family="Inter, Arial, sans-serif" font-size="11" font-weight="normal" font-style="normal" text-anchor="middle" fill="#333">Text-to-Speech</text>
  <text x="340.0" y="521.0" font-family="Inter, Arial, sans-serif" font-size="11" font-weight="normal" font-style="normal" text-anchor="middle" fill="#333">Chatterbox / Kokoro</text>
  <text x="340.0" y="600.0" font-family="Inter, Arial, sans-serif" font-size="11" font-weight="normal" font-style="normal" text-anchor="middle" fill="#333">Audio Out</text>
  <text x="340.0" y="615.0" font-family="Inter, Arial, sans-serif" font-size="11" font-weight="normal" font-style="normal" text-anchor="middle" fill="#333">PCM → LiveKit transport</text>
  <text x="620.0" y="331.0" font-family="Inter, Arial, sans-serif" font-size="11" font-weight="normal" font-style="normal" text-anchor="middle" fill="#333">STT Service</text>
  <text x="620.0" y="346.0" font-family="Inter, Arial, sans-serif" font-size="11" font-weight="normal" font-style="normal" text-anchor="middle" fill="#333">Triton Nemotron :9101</text>
  <text x="620.0" y="411.0" font-family="Inter, Arial, sans-serif" font-size="11" font-weight="normal" font-style="normal" text-anchor="middle" fill="#333">LLM Service</text>
  <text x="620.0" y="426.0" font-family="Inter, Arial, sans-serif" font-size="11" font-weight="normal" font-style="normal" text-anchor="middle" fill="#333">vLLM Gemma-4 / Qwen3</text>
  <text x="620.0" y="491.0" font-family="Inter, Arial, sans-serif" font-size="11" font-weight="normal" font-style="normal" text-anchor="middle" fill="#333">TTS Service</text>
  <text x="620.0" y="506.0" font-family="Inter, Arial, sans-serif" font-size="11" font-weight="normal" font-style="normal" text-anchor="middle" fill="#333">Triton Chatterbox :9201</text>
  <text x="26.0" y="694.0" font-family="Inter, Arial, sans-serif" font-size="10" font-weight="normal" font-style="normal" text-anchor="start" fill="#333">━━ HTTP</text>
  <text x="26.0" y="708.0" font-family="Inter, Arial, sans-serif" font-size="10" font-weight="normal" font-style="normal" text-anchor="start" fill="#333">━━━ gRPC</text>
  <text x="26.0" y="722.0" font-family="Inter, Arial, sans-serif" font-size="10" font-weight="normal" font-style="normal" text-anchor="start" fill="#333">┄┄ WebSocket</text>
</svg>