<svg xmlns="http://www.w3.org/2000/svg" viewBox="0 -10 720 650" width="720" height="650">
  <!-- Page: Voice Pipeline -->
  <style>text { font-family: Inter, Arial, sans-serif; }</style>
  <rect id="df-livekit" x="40.0" y="90.0" width="160.0" height="48.0" rx="8" ry="8" fill="#fff2cc" stroke="#d6b656" stroke-width="1" />
  <rect id="df-pipeline-body" x="270.0" y="50.0" width="200.0" height="466.0" rx="4" ry="4" fill="#fafafa" stroke="#9673a6" stroke-width="1" />
  <rect id="df-step1" x="288.0" y="106.0" width="164.0" height="40.0" rx="8" ry="8" fill="#f5f5f5" stroke="#666666" stroke-width="1" />
  <rect id="df-step2" x="288.0" y="176.0" width="164.0" height="40.0" rx="8" ry="8" fill="#f5f5f5" stroke="#666666" stroke-width="1" />
  <rect id="df-step3" x="288.0" y="246.0" width="164.0" height="40.0" rx="8" ry="8" fill="#f5f5f5" stroke="#666666" stroke-width="1" />
  <rect id="df-step4" x="288.0" y="316.0" width="164.0" height="40.0" rx="8" ry="8" fill="#f5f5f5" stroke="#666666" stroke-width="1" />
  <rect id="df-step5" x="288.0" y="386.0" width="164.0" height="40.0" rx="8" ry="8" fill="#f5f5f5" stroke="#666666" stroke-width="1" />
  <rect id="df-step6" x="288.0" y="456.0" width="164.0" height="40.0" rx="8" ry="8" fill="#f5f5f5" stroke="#666666" stroke-width="1" />
  <rect id="df-stt-svc" x="550.0" y="156.0" width="150.0" height="44.0" rx="8" ry="8" fill="#e1d5e7" stroke="#9673a6" stroke-width="1" />
  <rect id="df-llm-svc" x="550.0" y="296.0" width="150.0" height="44.0" rx="8" ry="8" fill="#e1d5e7" stroke="#9673a6" stroke-width="1" />
  <rect id="df-tts-svc" x="550.0" y="436.0" width="150.0" height="44.0" rx="8" ry="8" fill="#e1d5e7" stroke="#9673a6" stroke-width="1" />
  <rect id="df-guardrails" x="40.0" y="296.0" width="160.0" height="44.0" rx="8" ry="8" fill="#e1d5e7" stroke="#9673a6" stroke-width="1" />
  <rect id="df-api-svc" x="40.0" y="386.0" width="160.0" height="44.0" rx="8" ry="8" fill="#e1d5e7" stroke="#9673a6" stroke-width="1" />
  <rect id="df-pipeline-header" x="270.0" y="50.0" width="200.0" height="30.0" rx="4" ry="4" fill="#e1d5e7" stroke="#9673a6" stroke-width="1" />
  <rect x="270.0" y="76.0" width="200.0" height="4.0" fill="#e1d5e7" stroke="none" />
  <defs><marker id="arrow-df-e1" markerWidth="10" markerHeight="8" refX="9" refY="4" orient="auto" markerUnits="userSpaceOnUse"><polygon points="0 0, 10 4, 0 8" fill="#6c8ebf" /></marker></defs>
  <polyline id="df-e1" points="370.0,146.0 370.0,176.0" fill="none" stroke="#6c8ebf" stroke-width="2" stroke-linejoin="round" marker-end="url(#arrow-df-e1)" />
  <defs><marker id="arrow-df-e2" markerWidth="10" markerHeight="8" refX="9" refY="4" orient="auto" markerUnits="userSpaceOnUse"><polygon points="0 0, 10 4, 0 8" fill="#6c8ebf" /></marker></defs>
  <polyline id="df-e2" points="370.0,216.0 370.0,246.0" fill="none" stroke="#6c8ebf" stroke-width="2" stroke-linejoin="round" marker-end="url(#arrow-df-e2)" />
  <defs><marker id="arrow-df-e3" markerWidth="10" markerHeight="8" refX="9" refY="4" orient="auto" markerUnits="userSpaceOnUse"><polygon points="0 0, 10 4, 0 8" fill="#6c8ebf" /></marker></defs>
  <polyline id="df-e3" points="370.0,286.0 370.0,316.0" fill="none" stroke="#6c8ebf" stroke-width="2" stroke-linejoin="round" marker-end="url(#arrow-df-e3)" />
  <defs><marker id="arrow-df-e4" markerWidth="10" markerHeight="8" refX="9" refY="4" orient="auto" markerUnits="userSpaceOnUse"><polygon points="0 0, 10 4, 0 8" fill="#6c8ebf" /></marker></defs>
  <polyline id="df-e4" points="370.0,356.0 370.0,386.0" fill="none" stroke="#6c8ebf" stroke-width="2" stroke-linejoin="round" marker-end="url(#arrow-df-e4)" />
  <defs><marker id="arrow-df-e5" markerWidth="10" markerHeight="8" refX="9" refY="4" orient="auto" markerUnits="userSpaceOnUse"><polygon points="0 0, 10 4, 0 8" fill="#6c8ebf" /></marker></defs>
  <polyline id="df-e5" points="370.0,426.0 370.0,456.0" fill="none" stroke="#6c8ebf" stroke-width="2" stroke-linejoin="round" marker-end="url(#arrow-df-e5)" />
  <defs><marker id="arrow-df-e6" markerWidth="10" markerHeight="8" refX="9" refY="4" orient="auto" markerUnits="userSpaceOnUse"><polygon points="0 0, 10 4, 0 8" fill="#d79b00" /></marker></defs>
  <polyline id="df-e6" points="200.0,114.0 244.0,114.0 244.0,126.0 288.0,126.0" fill="none" stroke="#d79b00" stroke-width="2" stroke-dasharray="12 4" stroke-linejoin="round" marker-end="url(#arrow-df-e6)" />
  <rect x="192.0" y="102.0" width="60.0" height="14" rx="2" ry="2" fill="white" stroke="none" opacity="0.5" />
  <text x="222.0" y="112.0" font-family="Inter, Arial, sans-serif" font-size="10" text-anchor="middle" fill="#d79b00">audio in</text>
  <defs><marker id="arrow-df-e7" markerWidth="10" markerHeight="8" refX="9" refY="4" orient="auto" markerUnits="userSpaceOnUse"><polygon points="0 0, 10 4, 0 8" fill="#9673a6" /></marker></defs>
  <polyline id="df-e7" points="452.0,196.0 501.0,196.0 501.0,178.0 550.0,178.0" fill="none" stroke="#9673a6" stroke-width="3" stroke-linejoin="round" marker-end="url(#arrow-df-e7)" />
  <rect x="485.8" y="166.0" width="79.5" height="14" rx="2" ry="2" fill="white" stroke="none" opacity="0.7" />
  <text x="525.5" y="176.0" font-family="Inter, Arial, sans-serif" font-size="10" text-anchor="middle" fill="#9673a6">gRPC stream</text>
  <defs><marker id="arrow-df-e8" markerWidth="10" markerHeight="8" refX="9" refY="4" orient="auto" markerUnits="userSpaceOnUse"><polygon points="0 0, 10 4, 0 8" fill="#6c8ebf" /></marker></defs>
  <polyline id="df-e8" points="452.0,336.0 501.0,336.0 501.0,318.0 550.0,318.0" fill="none" stroke="#6c8ebf" stroke-width="2" stroke-linejoin="round" marker-end="url(#arrow-df-e8)" />
  <rect x="495.5" y="306.0" width="60.0" height="14" rx="2" ry="2" fill="white" stroke="none" opacity="0.7" />
  <text x="525.5" y="316.0" font-family="Inter, Arial, sans-serif" font-size="10" text-anchor="middle" fill="#6c8ebf">HTTP /v1</text>
  <defs><marker id="arrow-df-e9" markerWidth="10" markerHeight="8" refX="9" refY="4" orient="auto" markerUnits="userSpaceOnUse"><polygon points="0 0, 10 4, 0 8" fill="#9673a6" /></marker></defs>
  <polyline id="df-e9" points="452.0,476.0 501.0,476.0 501.0,458.0 550.0,458.0" fill="none" stroke="#9673a6" stroke-width="3" stroke-linejoin="round" marker-end="url(#arrow-df-e9)" />
  <rect x="489.0" y="446.0" width="73.0" height="14" rx="2" ry="2" fill="white" stroke="none" opacity="0.7" />
  <text x="525.5" y="456.0" font-family="Inter, Arial, sans-serif" font-size="10" text-anchor="middle" fill="#9673a6">gRPC infer</text>
  <defs><marker id="arrow-df-e10" markerWidth="10" markerHeight="8" refX="9" refY="4" orient="auto" markerUnits="userSpaceOnUse"><polygon points="0 0, 10 4, 0 8" fill="#9673a6" /></marker></defs>
  <polyline id="df-e10" points="288.0,336.0 244.0,336.0 244.0,318.0 200.0,318.0" fill="none" stroke="#9673a6" stroke-width="3" stroke-linejoin="round" marker-end="url(#arrow-df-e10)" />
  <rect x="182.2" y="306.0" width="79.5" height="14" rx="2" ry="2" fill="white" stroke="none" opacity="0.7" />
  <text x="222.0" y="316.0" font-family="Inter, Arial, sans-serif" font-size="10" text-anchor="middle" fill="#9673a6">guard check</text>
  <defs><marker id="arrow-df-e11" markerWidth="10" markerHeight="8" refX="9" refY="4" orient="auto" markerUnits="userSpaceOnUse"><polygon points="0 0, 10 4, 0 8" fill="#6c8ebf" /></marker></defs>
  <polyline id="df-e11" points="288.0,406.0 244.0,406.0 244.0,408.0 200.0,408.0" fill="none" stroke="#6c8ebf" stroke-width="2" stroke-linejoin="round" marker-end="url(#arrow-df-e11)" />
  <rect x="185.5" y="396.0" width="73.0" height="14" rx="2" ry="2" fill="white" stroke="none" opacity="0.7" />
  <text x="222.0" y="406.0" font-family="Inter, Arial, sans-serif" font-size="10" text-anchor="middle" fill="#6c8ebf">tool calls</text>
  <text x="370.0" y="30.0" font-family="Inter, Arial, sans-serif" font-size="14" font-weight="bold" font-style="normal" text-anchor="middle" fill="#333">Voice Pipeline (Cascade Mode)</text>
  <text x="120.0" y="110.0" font-family="Inter, Arial, sans-serif" font-size="11" font-weight="normal" font-style="normal" text-anchor="middle" fill="#333">LiveKit SFU</text>
  <text x="120.0" y="125.0" font-family="Inter, Arial, sans-serif" font-size="11" font-weight="normal" font-style="normal" text-anchor="middle" fill="#333">WebRTC :7880 media</text>
  <text x="370.0" y="66.0" font-family="Inter, Arial, sans-serif" font-size="12" font-weight="bold" font-style="normal" text-anchor="middle" fill="#333">Realtime-Voice (Pipecat)</text>
  <text x="370.0" y="82.0" font-family="Inter, Arial, sans-serif" font-size="12" font-weight="bold" font-style="normal" text-anchor="middle" fill="#333">VAD → STT → LLM → TTS</text>
  <text x="370.0" y="122.0" font-family="Inter, Arial, sans-serif" font-size="11" font-weight="normal" font-style="normal" text-anchor="middle" fill="#333">VAD</text>
  <text x="370.0" y="137.0" font-family="Inter, Arial, sans-serif" font-size="11" font-weight="normal" font-style="normal" text-anchor="middle" fill="#333">MarbleNet ONNX conf=0.5</text>
  <text x="370.0" y="192.0" font-family="Inter, Arial, sans-serif" font-size="11" font-weight="normal" font-style="normal" text-anchor="middle" fill="#333">STT</text>
  <text x="370.0" y="207.0" font-family="Inter, Arial, sans-serif" font-size="11" font-weight="normal" font-style="normal" text-anchor="middle" fill="#333">Nemotron streaming gRPC</text>
  <text x="370.0" y="262.0" font-family="Inter, Arial, sans-serif" font-size="11" font-weight="normal" font-style="normal" text-anchor="middle" fill="#333">Normalise</text>
  <text x="370.0" y="277.0" font-family="Inter, Arial, sans-serif" font-size="11" font-weight="normal" font-style="normal" text-anchor="middle" fill="#333">ASR text corrections</text>
  <text x="370.0" y="332.0" font-family="Inter, Arial, sans-serif" font-size="11" font-weight="normal" font-style="normal" text-anchor="middle" fill="#333">LLM</text>
  <text x="370.0" y="347.0" font-family="Inter, Arial, sans-serif" font-size="11" font-weight="normal" font-style="normal" text-anchor="middle" fill="#333">Qwen3-8B streaming /v1</text>
  <text x="370.0" y="402.0" font-family="Inter, Arial, sans-serif" font-size="11" font-weight="normal" font-style="normal" text-anchor="middle" fill="#333">Aggregate</text>
  <text x="370.0" y="417.0" font-family="Inter, Arial, sans-serif" font-size="11" font-weight="normal" font-style="normal" text-anchor="middle" fill="#333">Bounded text + tools</text>
  <text x="370.0" y="472.0" font-family="Inter, Arial, sans-serif" font-size="11" font-weight="normal" font-style="normal" text-anchor="middle" fill="#333">TTS</text>
  <text x="370.0" y="487.0" font-family="Inter, Arial, sans-serif" font-size="11" font-weight="normal" font-style="normal" text-anchor="middle" fill="#333">Chatterbox synthesis</text>
  <text x="625.0" y="174.0" font-family="Inter, Arial, sans-serif" font-size="11" font-weight="normal" font-style="normal" text-anchor="middle" fill="#333">STT</text>
  <text x="625.0" y="189.0" font-family="Inter, Arial, sans-serif" font-size="11" font-weight="normal" font-style="normal" text-anchor="middle" fill="#333">Triton gRPC :9101</text>
  <text x="625.0" y="314.0" font-family="Inter, Arial, sans-serif" font-size="11" font-weight="normal" font-style="normal" text-anchor="middle" fill="#333">LLM</text>
  <text x="625.0" y="329.0" font-family="Inter, Arial, sans-serif" font-size="11" font-weight="normal" font-style="normal" text-anchor="middle" fill="#333">vLLM HTTP :9000/v1</text>
  <text x="625.0" y="454.0" font-family="Inter, Arial, sans-serif" font-size="11" font-weight="normal" font-style="normal" text-anchor="middle" fill="#333">TTS</text>
  <text x="625.0" y="469.0" font-family="Inter, Arial, sans-serif" font-size="11" font-weight="normal" font-style="normal" text-anchor="middle" fill="#333">Triton gRPC :9201</text>
  <text x="120.0" y="314.0" font-family="Inter, Arial, sans-serif" font-size="11" font-weight="normal" font-style="normal" text-anchor="middle" fill="#333">Guardrails</text>
  <text x="120.0" y="329.0" font-family="Inter, Arial, sans-serif" font-size="11" font-weight="normal" font-style="normal" text-anchor="middle" fill="#333">Triton gRPC :9021</text>
  <text x="120.0" y="404.0" font-family="Inter, Arial, sans-serif" font-size="11" font-weight="normal" font-style="normal" text-anchor="middle" fill="#333">API</text>
  <text x="120.0" y="419.0" font-family="Inter, Arial, sans-serif" font-size="11" font-weight="normal" font-style="normal" text-anchor="middle" fill="#333">tools + conversations</text>
  <text x="26.0" y="574.0" font-family="Inter, Arial, sans-serif" font-size="10" font-weight="normal" font-style="normal" text-anchor="start" fill="#333">━━ HTTP</text>
  <text x="26.0" y="588.0" font-family="Inter, Arial, sans-serif" font-size="10" font-weight="normal" font-style="normal" text-anchor="start" fill="#333">━━━ gRPC</text>
  <text x="26.0" y="602.0" font-family="Inter, Arial, sans-serif" font-size="10" font-weight="normal" font-style="normal" text-anchor="start" fill="#333">┄┄ WebSocket</text>
</svg>