<svg xmlns="http://www.w3.org/2000/svg" viewBox="0 10 910 963" width="910" height="963">
  <!-- Page: Architecture Overview -->
  <style>text { font-family: Inter, Arial, sans-serif; }</style>
  <rect id="L0-body" x="30.0" y="30.0" width="860.0" height="80.0" rx="4" ry="4" fill="#fafafa" stroke="#6c8ebf" stroke-width="1" />
  <rect id="cfg" x="340.0" y="58.0" width="240.0" height="52.0" rx="8" ry="8" fill="#ffffff" stroke="#6c8ebf" stroke-width="1" />
  <rect id="L1-body" x="30.0" y="160.0" width="860.0" height="508.0" rx="4" ry="4" fill="#fafafa" stroke="#999999" stroke-width="1" />
  <rect id="gen-body" x="48.0" y="186.0" width="240.0" height="482.0" rx="4" ry="4" fill="#fafafa" stroke="#d6b656" stroke-width="1" />
  <rect id="gen-s1" x="66.0" y="238.0" width="204.0" height="58.0" rx="8" ry="8" fill="#ffffff" stroke="#d6b656" stroke-width="1" />
  <rect id="gen-s2" x="66.0" y="326.0" width="204.0" height="58.0" rx="8" ry="8" fill="#ffffff" stroke="#d6b656" stroke-width="1" />
  <rect id="gen-s3" x="66.0" y="414.0" width="204.0" height="58.0" rx="8" ry="8" fill="#ffffff" stroke="#d6b656" stroke-width="1" />
  <rect id="gen-s4" x="66.0" y="502.0" width="204.0" height="58.0" rx="8" ry="8" fill="#ffffff" stroke="#d6b656" stroke-width="1" />
  <rect id="gen-s5" x="66.0" y="590.0" width="204.0" height="58.0" rx="8" ry="8" fill="#ffffff" stroke="#d6b656" stroke-width="1" />
  <rect id="val-body" x="338.0" y="186.0" width="240.0" height="306.0" rx="4" ry="4" fill="#fafafa" stroke="#82b366" stroke-width="1" />
  <rect id="val-s1" x="356.0" y="238.0" width="204.0" height="58.0" rx="8" ry="8" fill="#ffffff" stroke="#82b366" stroke-width="1" />
  <rect id="val-s2" x="356.0" y="326.0" width="204.0" height="58.0" rx="8" ry="8" fill="#ffffff" stroke="#82b366" stroke-width="1" />
  <rect id="val-s3" x="356.0" y="414.0" width="204.0" height="58.0" rx="8" ry="8" fill="#ffffff" stroke="#82b366" stroke-width="1" />
  <rect id="post-body" x="628.0" y="186.0" width="240.0" height="394.0" rx="4" ry="4" fill="#fafafa" stroke="#9673a6" stroke-width="1" />
  <rect id="post-s1" x="646.0" y="238.0" width="204.0" height="58.0" rx="8" ry="8" fill="#ffffff" stroke="#9673a6" stroke-width="1" />
  <rect id="post-s2" x="646.0" y="326.0" width="204.0" height="58.0" rx="8" ry="8" fill="#ffffff" stroke="#9673a6" stroke-width="1" />
  <rect id="post-s3" x="646.0" y="414.0" width="204.0" height="58.0" rx="8" ry="8" fill="#ffffff" stroke="#9673a6" stroke-width="1" />
  <rect id="post-s4" x="646.0" y="502.0" width="204.0" height="58.0" rx="8" ry="8" fill="#ffffff" stroke="#9673a6" stroke-width="1" />
  <rect id="L2-body" x="30.0" y="743.0" width="860.0" height="110.0" rx="4" ry="4" fill="#fef5f5" stroke="#b85450" stroke-width="1" stroke-dasharray="8 4" />
  <rect id="env-abc" x="195.0" y="775.0" width="240.0" height="52.0" rx="8" ry="8" fill="#f8cecc" stroke="#b85450" stroke-width="1" />
  <rect id="env-impl" x="485.0" y="775.0" width="240.0" height="52.0" rx="8" ry="8" fill="#f8cecc" stroke="#b85450" stroke-width="1" />
  <rect id="L0-header" x="30.0" y="30.0" width="860.0" height="28.0" rx="4" ry="4" fill="#dae8fc" stroke="#6c8ebf" stroke-width="1" />
  <rect x="30.0" y="54.0" width="860.0" height="4.0" fill="#dae8fc" stroke="none" />
  <rect id="L1-header" x="30.0" y="160.0" width="860.0" height="28.0" rx="4" ry="4" fill="#f0f0f0" stroke="#999999" stroke-width="1" />
  <rect x="30.0" y="184.0" width="860.0" height="4.0" fill="#f0f0f0" stroke="none" />
  <rect id="gen-header" x="48.0" y="186.0" width="240.0" height="26.0" rx="4" ry="4" fill="#fff2cc" stroke="#d6b656" stroke-width="1" />
  <rect x="48.0" y="208.0" width="240.0" height="4.0" fill="#fff2cc" stroke="none" />
  <rect id="val-header" x="338.0" y="186.0" width="240.0" height="26.0" rx="4" ry="4" fill="#d5e8d4" stroke="#82b366" stroke-width="1" />
  <rect x="338.0" y="208.0" width="240.0" height="4.0" fill="#d5e8d4" stroke="none" />
  <rect id="post-header" x="628.0" y="186.0" width="240.0" height="26.0" rx="4" ry="4" fill="#e1d5e7" stroke="#9673a6" stroke-width="1" />
  <rect x="628.0" y="208.0" width="240.0" height="4.0" fill="#e1d5e7" stroke="none" />
  <rect id="L2-header" x="30.0" y="743.0" width="860.0" height="28.0" rx="4" ry="4" fill="#fef5f5" stroke="#b85450" stroke-width="1" stroke-dasharray="8 4" />
  <rect x="30.0" y="767.0" width="860.0" height="4.0" fill="#fef5f5" stroke="none" />
  <defs><marker id="arrow-e-gen-1-2" markerWidth="10" markerHeight="8" refX="9" refY="4" orient="auto" markerUnits="userSpaceOnUse"><polygon points="0 0, 10 4, 0 8" fill="#000000" /></marker></defs>
  <polyline id="e-gen-1-2" points="168.0,296.0 168.0,326.0" fill="none" stroke="#000000" stroke-width="2" stroke-linejoin="round" marker-end="url(#arrow-e-gen-1-2)" />
  <defs><marker id="arrow-e-gen-2-3" markerWidth="10" markerHeight="8" refX="9" refY="4" orient="auto" markerUnits="userSpaceOnUse"><polygon points="0 0, 10 4, 0 8" fill="#000000" /></marker></defs>
  <polyline id="e-gen-2-3" points="168.0,384.0 168.0,414.0" fill="none" stroke="#000000" stroke-width="2" stroke-linejoin="round" marker-end="url(#arrow-e-gen-2-3)" />
  <defs><marker id="arrow-e-gen-3-4" markerWidth="10" markerHeight="8" refX="9" refY="4" orient="auto" markerUnits="userSpaceOnUse"><polygon points="0 0, 10 4, 0 8" fill="#000000" /></marker></defs>
  <polyline id="e-gen-3-4" points="168.0,472.0 168.0,502.0" fill="none" stroke="#000000" stroke-width="2" stroke-linejoin="round" marker-end="url(#arrow-e-gen-3-4)" />
  <defs><marker id="arrow-e-gen-4-5" markerWidth="10" markerHeight="8" refX="9" refY="4" orient="auto" markerUnits="userSpaceOnUse"><polygon points="0 0, 10 4, 0 8" fill="#000000" /></marker></defs>
  <polyline id="e-gen-4-5" points="168.0,560.0 168.0,590.0" fill="none" stroke="#000000" stroke-width="2" stroke-linejoin="round" marker-end="url(#arrow-e-gen-4-5)" />
  <defs><marker id="arrow-e-val-1-2" markerWidth="10" markerHeight="8" refX="9" refY="4" orient="auto" markerUnits="userSpaceOnUse"><polygon points="0 0, 10 4, 0 8" fill="#000000" /></marker></defs>
  <polyline id="e-val-1-2" points="458.0,296.0 458.0,326.0" fill="none" stroke="#000000" stroke-width="2" stroke-linejoin="round" marker-end="url(#arrow-e-val-1-2)" />
  <defs><marker id="arrow-e-val-2-3" markerWidth="10" markerHeight="8" refX="9" refY="4" orient="auto" markerUnits="userSpaceOnUse"><polygon points="0 0, 10 4, 0 8" fill="#000000" /></marker></defs>
  <polyline id="e-val-2-3" points="458.0,384.0 458.0,414.0" fill="none" stroke="#000000" stroke-width="2" stroke-linejoin="round" marker-end="url(#arrow-e-val-2-3)" />
  <defs><marker id="arrow-e-post-1-2" markerWidth="10" markerHeight="8" refX="9" refY="4" orient="auto" markerUnits="userSpaceOnUse"><polygon points="0 0, 10 4, 0 8" fill="#000000" /></marker></defs>
  <polyline id="e-post-1-2" points="748.0,296.0 748.0,326.0" fill="none" stroke="#000000" stroke-width="2" stroke-linejoin="round" marker-end="url(#arrow-e-post-1-2)" />
  <defs><marker id="arrow-e-post-2-3" markerWidth="10" markerHeight="8" refX="9" refY="4" orient="auto" markerUnits="userSpaceOnUse"><polygon points="0 0, 10 4, 0 8" fill="#000000" /></marker></defs>
  <polyline id="e-post-2-3" points="748.0,384.0 748.0,414.0" fill="none" stroke="#000000" stroke-width="2" stroke-linejoin="round" marker-end="url(#arrow-e-post-2-3)" />
  <defs><marker id="arrow-e-post-3-4" markerWidth="10" markerHeight="8" refX="9" refY="4" orient="auto" markerUnits="userSpaceOnUse"><polygon points="0 0, 10 4, 0 8" fill="#000000" /></marker></defs>
  <polyline id="e-post-3-4" points="748.0,472.0 748.0,502.0" fill="none" stroke="#000000" stroke-width="2" stroke-linejoin="round" marker-end="url(#arrow-e-post-3-4)" />
  <defs><marker id="arrow-e-cfg-gen" markerWidth="10" markerHeight="8" refX="9" refY="4" orient="auto" markerUnits="userSpaceOnUse"><polygon points="0 0, 10 4, 0 8" fill="#6c8ebf" /></marker></defs>
  <polyline id="e-cfg-gen" points="388.0,110.0 388.0,130.0 168.0,130.0 168.0,186.0" fill="none" stroke="#6c8ebf" stroke-width="2" stroke-linejoin="round" marker-end="url(#arrow-e-cfg-gen)" />
  <defs><marker id="arrow-e-cfg-val" markerWidth="10" markerHeight="8" refX="9" refY="4" orient="auto" markerUnits="userSpaceOnUse"><polygon points="0 0, 10 4, 0 8" fill="#6c8ebf" /></marker></defs>
  <polyline id="e-cfg-val" points="460.0,110.0 460.0,130.0 458.0,130.0 458.0,186.0" fill="none" stroke="#6c8ebf" stroke-width="2" stroke-linejoin="round" marker-end="url(#arrow-e-cfg-val)" />
  <defs><marker id="arrow-e-cfg-post" markerWidth="10" markerHeight="8" refX="9" refY="4" orient="auto" markerUnits="userSpaceOnUse"><polygon points="0 0, 10 4, 0 8" fill="#6c8ebf" /></marker></defs>
  <polyline id="e-cfg-post" points="532.0,110.0 532.0,130.0 748.0,130.0 748.0,186.0" fill="none" stroke="#6c8ebf" stroke-width="2" stroke-linejoin="round" marker-end="url(#arrow-e-cfg-post)" />
  <defs><marker id="arrow-e-gen-val" markerWidth="10" markerHeight="8" refX="9" refY="4" orient="auto" markerUnits="userSpaceOnUse"><polygon points="0 0, 10 4, 0 8" fill="#82b366" /></marker></defs>
  <polyline id="e-gen-val" points="288.0,427.0 313.0,427.0 313.0,339.0 338.0,339.0" fill="none" stroke="#82b366" stroke-width="2" stroke-linejoin="round" marker-end="url(#arrow-e-gen-val)" />
  <defs><marker id="arrow-e-val-post" markerWidth="10" markerHeight="8" refX="9" refY="4" orient="auto" markerUnits="userSpaceOnUse"><polygon points="0 0, 10 4, 0 8" fill="#82b366" /></marker></defs>
  <polyline id="e-val-post" points="578.0,339.0 603.0,339.0 603.0,383.0 628.0,383.0" fill="none" stroke="#82b366" stroke-width="2" stroke-linejoin="round" marker-end="url(#arrow-e-val-post)" />
  <defs><marker id="arrow-e-gen-env" markerWidth="10" markerHeight="8" refX="9" refY="4" orient="auto" markerUnits="userSpaceOnUse"><polygon points="0 0, 10 4, 0 8" fill="#b85450" /></marker></defs>
  <polyline id="e-gen-env" points="168.0,668.0 168.0,700.0 315.0,700.0 315.0,775.0" fill="none" stroke="#b85450" stroke-width="2" stroke-dasharray="8 4" stroke-linejoin="round" marker-end="url(#arrow-e-gen-env)" />
  <rect x="192.0" y="688.0" width="99.0" height="14" rx="2" ry="2" fill="white" stroke="none" opacity="0.6" />
  <text x="241.5" y="698.0" font-family="Inter, Arial, sans-serif" font-size="10" text-anchor="middle" fill="#b85450">execute_tool()</text>
  <defs><marker id="arrow-e-val-env" markerWidth="10" markerHeight="8" refX="9" refY="4" orient="auto" markerUnits="userSpaceOnUse"><polygon points="0 0, 10 4, 0 8" fill="#b85450" /></marker></defs>
  <polyline id="e-val-env" points="458.0,492.0 458.0,700.0 605.0,700.0 605.0,775.0" fill="none" stroke="#b85450" stroke-width="2" stroke-dasharray="8 4" stroke-linejoin="round" marker-end="url(#arrow-e-val-env)" />
  <rect x="468.0" y="584.0" width="73.0" height="14" rx="2" ry="2" fill="white" stroke="none" opacity="0.6" />
  <text x="470.0" y="594.0" font-family="Inter, Arial, sans-serif" font-size="10" text-anchor="start" fill="#b85450">validate()</text>
  <text x="460.0" y="48.0" font-family="Inter, Arial, sans-serif" font-size="12" font-weight="bold" font-style="normal" text-anchor="middle" fill="#333">Config</text>
  <text x="460.0" y="80.0" font-family="Inter, Arial, sans-serif" font-size="11" font-weight="normal" font-style="normal" text-anchor="middle" fill="#333">generation_plan_*.yaml</text>
  <text x="460.0" y="95.0" font-family="Inter, Arial, sans-serif" font-size="11" font-weight="normal" font-style="normal" text-anchor="middle" fill="#333">env, models, taxonomy, pipeline stages</text>
  <text x="460.0" y="178.0" font-family="Inter, Arial, sans-serif" font-size="12" font-weight="bold" font-style="normal" text-anchor="middle" fill="#333">Pipeline (domain-agnostic)</text>
  <text x="168.0" y="195.0" font-family="Inter, Arial, sans-serif" font-size="11" font-weight="bold" font-style="normal" text-anchor="middle" fill="#333">Generator</text>
  <text x="168.0" y="210.0" font-family="Inter, Arial, sans-serif" font-size="11" font-weight="bold" font-style="normal" text-anchor="middle" fill="#333">multi-turn block generation</text>
  <text x="168.0" y="263.0" font-family="Inter, Arial, sans-serif" font-size="11" font-weight="normal" font-style="normal" text-anchor="middle" fill="#333">Combo Grid Builder</text>
  <text x="168.0" y="278.0" font-family="Inter, Arial, sans-serif" font-size="11" font-weight="normal" font-style="normal" text-anchor="middle" fill="#333">Cartesian: dialect x type x topic</text>
  <text x="168.0" y="351.0" font-family="Inter, Arial, sans-serif" font-size="11" font-weight="normal" font-style="normal" text-anchor="middle" fill="#333">Query Generation</text>
  <text x="168.0" y="366.0" font-family="Inter, Arial, sans-serif" font-size="11" font-weight="normal" font-style="normal" text-anchor="middle" fill="#333">deepseek-v4-flash, temp=0.9</text>
  <text x="168.0" y="439.0" font-family="Inter, Arial, sans-serif" font-size="11" font-weight="normal" font-style="normal" text-anchor="middle" fill="#333">Answer Decision</text>
  <text x="168.0" y="454.0" font-family="Inter, Arial, sans-serif" font-size="11" font-weight="normal" font-style="normal" text-anchor="middle" fill="#333">tool_choice=auto, temp=0.3</text>
  <text x="168.0" y="527.0" font-family="Inter, Arial, sans-serif" font-size="11" font-weight="normal" font-style="normal" text-anchor="middle" fill="#333">Tool Dispatch</text>
  <text x="168.0" y="542.0" font-family="Inter, Arial, sans-serif" font-size="11" font-weight="normal" font-style="normal" text-anchor="middle" fill="#333">EXECUTE/SYNTHESIZE/DETERMINISTIC</text>
  <text x="168.0" y="615.0" font-family="Inter, Arial, sans-serif" font-size="11" font-weight="normal" font-style="normal" text-anchor="middle" fill="#333">Correction + Fix</text>
  <text x="168.0" y="630.0" font-family="Inter, Arial, sans-serif" font-size="11" font-weight="normal" font-style="normal" text-anchor="middle" fill="#333">LLM rewrite of failed turns</text>
  <text x="458.0" y="195.0" font-family="Inter, Arial, sans-serif" font-size="11" font-weight="bold" font-style="normal" text-anchor="middle" fill="#333">Validator</text>
  <text x="458.0" y="210.0" font-family="Inter, Arial, sans-serif" font-size="11" font-weight="bold" font-style="normal" text-anchor="middle" fill="#333">LLM scoring + dedup</text>
  <text x="458.0" y="263.0" font-family="Inter, Arial, sans-serif" font-size="11" font-weight="normal" font-style="normal" text-anchor="middle" fill="#333">LLM Scorer</text>
  <text x="458.0" y="278.0" font-family="Inter, Arial, sans-serif" font-size="11" font-weight="normal" font-style="normal" text-anchor="middle" fill="#333">rubric judge, mean&amp;ge;8 gate</text>
  <text x="458.0" y="351.0" font-family="Inter, Arial, sans-serif" font-size="11" font-weight="normal" font-style="normal" text-anchor="middle" fill="#333">Dedup + Filter</text>
  <text x="458.0" y="366.0" font-family="Inter, Arial, sans-serif" font-size="11" font-weight="normal" font-style="normal" text-anchor="middle" fill="#333">seam_check, dedup.py</text>
  <text x="458.0" y="439.0" font-family="Inter, Arial, sans-serif" font-size="11" font-weight="normal" font-style="normal" text-anchor="middle" fill="#333">Fix + Re-annotate</text>
  <text x="458.0" y="454.0" font-family="Inter, Arial, sans-serif" font-size="11" font-weight="normal" font-style="normal" text-anchor="middle" fill="#333">fixer.py, LLM rewrite failed</text>
  <text x="748.0" y="195.0" font-family="Inter, Arial, sans-serif" font-size="11" font-weight="bold" font-style="normal" text-anchor="middle" fill="#333">Post-Processing</text>
  <text x="748.0" y="210.0" font-family="Inter, Arial, sans-serif" font-size="11" font-weight="bold" font-style="normal" text-anchor="middle" fill="#333">assembly + split + analysis</text>
  <text x="748.0" y="263.0" font-family="Inter, Arial, sans-serif" font-size="11" font-weight="normal" font-style="normal" text-anchor="middle" fill="#333">Assemble Blocks</text>
  <text x="748.0" y="278.0" font-family="Inter, Arial, sans-serif" font-size="11" font-weight="normal" font-style="normal" text-anchor="middle" fill="#333">stitch blocks into convos</text>
  <text x="748.0" y="351.0" font-family="Inter, Arial, sans-serif" font-size="11" font-weight="normal" font-style="normal" text-anchor="middle" fill="#333">Split + Rebalance</text>
  <text x="748.0" y="366.0" font-family="Inter, Arial, sans-serif" font-size="11" font-weight="normal" font-style="normal" text-anchor="middle" fill="#333">train/val/eval, type ratios</text>
  <text x="748.0" y="439.0" font-family="Inter, Arial, sans-serif" font-size="11" font-weight="normal" font-style="normal" text-anchor="middle" fill="#333">Distillation</text>
  <text x="748.0" y="454.0" font-family="Inter, Arial, sans-serif" font-size="11" font-weight="normal" font-style="normal" text-anchor="middle" fill="#333">format for training pipeline</text>
  <text x="748.0" y="527.0" font-family="Inter, Arial, sans-serif" font-size="11" font-weight="normal" font-style="normal" text-anchor="middle" fill="#333">Analysis</text>
  <text x="748.0" y="542.0" font-family="Inter, Arial, sans-serif" font-size="11" font-weight="normal" font-style="normal" text-anchor="middle" fill="#333">quality report, category stats</text>
  <text x="460.0" y="765.0" font-family="Inter, Arial, sans-serif" font-size="12" font-weight="bold" font-style="normal" text-anchor="middle" fill="#333">Environment (pluggable)</text>
  <text x="315.0" y="797.0" font-family="Inter, Arial, sans-serif" font-size="11" font-weight="normal" font-style="normal" text-anchor="middle" fill="#333">Environment ABC (base.py)</text>
  <text x="315.0" y="812.0" font-family="Inter, Arial, sans-serif" font-size="11" font-weight="normal" font-style="normal" text-anchor="middle" fill="#333">ToolSpec + ToolBehavior protocol</text>
  <text x="605.0" y="797.0" font-family="Inter, Arial, sans-serif" font-size="11" font-weight="normal" font-style="normal" text-anchor="middle" fill="#333">convai_spending_insights</text>
  <text x="605.0" y="812.0" font-family="Inter, Arial, sans-serif" font-size="11" font-weight="normal" font-style="normal" text-anchor="middle" fill="#333">ConciergeDB, guardrailing, persona</text>
  <text x="310.0" y="424.0" font-family="Inter, Arial, sans-serif" font-size="8" font-weight="normal" font-style="italic" text-anchor="middle" fill="#333">scored blocks</text>
  <text x="602.5" y="424.0" font-family="Inter, Arial, sans-serif" font-size="8" font-weight="normal" font-style="italic" text-anchor="middle" fill="#333">passing blocks</text>
  <text x="26.0" y="907.0" font-family="Inter, Arial, sans-serif" font-size="10" font-weight="normal" font-style="normal" text-anchor="start" fill="#333">━━ config flow</text>
  <text x="26.0" y="921.0" font-family="Inter, Arial, sans-serif" font-size="10" font-weight="normal" font-style="normal" text-anchor="start" fill="#333">━━ data flow</text>
  <text x="26.0" y="935.0" font-family="Inter, Arial, sans-serif" font-size="10" font-weight="normal" font-style="normal" text-anchor="start" fill="#333">┄┄ env call (dashed)</text>
</svg>